<?xml version="1.0" encoding="utf-8"?>
<!-- Generator: Adobe Illustrator 16.0.0, SVG Export Plug-In . SVG Version: 6.00 Build 0)  -->
<!DOCTYPE svg PUBLIC "-//W3C//DTD SVG 1.1//EN" "http://www.w3.org/Graphics/SVG/1.1/DTD/svg11.dtd">
<svg version="1.1" id="Capa_1" xmlns="http://www.w3.org/2000/svg" xmlns:xlink="http://www.w3.org/1999/xlink" x="0px" y="0px"
	 width="841.89px" height="595.28px" viewBox="0 0 841.89 595.28" enable-background="new 0 0 841.89 595.28" xml:space="preserve">
<g>
	<path fill-rule="evenodd" clip-rule="evenodd" d="M289.438,333.817c0,27.425,0,54.682,0,82.466c4.878,0,9.51-0.164,14.115,0.118
		c1.124,0.068,2.159,1.598,3.235,2.455c-0.306,0.475-0.612,0.949-0.918,1.424c-14.136,0-28.271,0-42.407,0
		c-6.167,0-12.334-0.066-18.5,0.029c-2.75,0.043-4.264-0.562-2.809-3.949c5.249,0,10.544,0,16.257,0c0-77.353,0-154.389,0-231.918
		c-5.404,0-10.819,0-16.235,0c-0.343-0.441-0.687-0.883-1.03-1.324c0.907-0.942,1.815-2.71,2.72-2.707
		c24.482,0.059,49.142-1.472,73.397,0.98c27.207,2.75,46.529,23.982,49.096,51.356c1.486,15.848,1.263,32.029,0.006,47.918
		c-1.694,21.421-13.735,36.617-32.622,46.505c-0.737,0.386-1.497,0.732-2.214,1.152c-0.262,0.154-0.429,0.471-0.98,1.105
		c11.249,23.2,22.582,46.577,33.916,69.954c0.384-0.055,0.767-0.109,1.151-0.164c17.061-72.896,34.122-145.792,51.193-218.731
		c8.55,0,16.501,0,24.791,0c18.518,78.599,37.007,157.078,55.552,235.796c5.115,0,9.941-0.155,14.744,0.107
		c1.223,0.066,2.372,1.459,3.556,2.242c-0.256,0.46-0.511,0.921-0.767,1.381c-21.281,0-42.562,0-64.133,0
		c-1.057-2.334-0.932-3.838,2.414-3.754c3.979,0.1,7.962,0.023,12.645,0.023c-6.305-26.214-12.479-51.886-18.701-77.76
		c-19.41,0-38.69,0-58.559,0c-2.544,10.987-5.108,22.108-7.695,33.223c-2.527,10.854-5.117,21.694-7.604,32.559
		c-1.946,8.501-0.972,9.849,7.543,11.813c1.361,0.314,2.502,1.581,3.745,2.408c-0.246,0.585-0.491,1.169-0.736,1.754
		c-10.054,0-20.145-0.537-30.151,0.151c-9.955,0.686-15.331-4.139-19.293-12.415c-10.992-22.961-22.412-45.72-33.235-68.76
		C298.399,333.882,295.348,331.953,289.438,333.817z M289.551,184.541c0,48.473,0,96.473,0,144.548
		c7.194,0,14.018,0.248,20.815-0.07c6.671-0.312,11.994-3.43,15.938-8.957c5.605-7.852,8.354-16.792,8.637-26.175
		c0.641-21.281,0.882-42.584,0.766-63.875c-0.061-11.15-1.29-22.271-6.783-32.398c-3.864-7.124-9.267-12.409-17.683-12.974
		C304.143,184.163,296.987,184.541,289.551,184.541z M418.026,214.095c-0.271,0.023-0.541,0.047-0.812,0.07
		c-9.257,39.881-18.514,79.761-27.828,119.89c19.279,0,37.867,0,56.978,0C436.866,293.848,427.446,253.971,418.026,214.095z"/>
	<path fill-rule="evenodd" clip-rule="evenodd" d="M465.715,180.414c21.143,0,42.284,0,63.642,0c1.146,2.434,1.09,3.969-2.301,3.886
		c-3.979-0.097-7.963-0.022-12.706-0.022c16.466,70.081,32.822,139.696,49.179,209.312c0.38-0.018,0.759-0.035,1.138-0.053
		c16.201-69.567,32.401-139.135,48.611-208.74c-16.032-2.323-16.032-2.323-16.022-4.264c42.243,0,84.487,0,126.992,0
		c0,11.87,0,23.491,0,35.168c-3.347,1.678-3.568-0.71-3.784-2.918c-0.746-7.635-4.105-13.961-9.508-19.294
		c-5.165-5.098-11.372-8.411-18.558-8.814c-8.605-0.482-17.26-0.114-26.226-0.114c0,36.13,0,72.171,0,108.445
		c8.621,0,17.121,0.571,25.504-0.175c7.141-0.635,11.39-5.561,13.236-12.549c0.347-1.31,1.705-2.352,2.596-3.518
		c0.422,0.266,0.844,0.53,1.266,0.796c0,11.778,0,23.556,0,35.334c-0.344,0.294-0.688,0.587-1.03,0.88
		c-0.94-0.953-2.407-1.753-2.739-2.886c-2.731-9.316-7.61-13.364-17.184-13.567c-7.127-0.151-14.26-0.03-21.684-0.03
		c0,39.682,0,78.945,0,118.966c13.104-0.655,26.572,2.343,39.396-1.937c13.293-4.436,19.578-15.154,21.751-28.638
		c0.324-2.016-1.148-5.729,3.593-5.699c0,12.965,0,25.742,0,39.053c-37.322,0-74.724,0.004-112.125-0.086
		c-0.262-0.001-0.521-1.304-0.999-2.584c5.856,0,11.278,0,16.969,0c0-77.432,0-154.362,0-232.064c-4.296,0-8.737-0.246-13.114,0.177
		c-1.06,0.103-2.433,2.288-2.772,3.726c-7.35,31.088-14.58,62.203-21.82,93.316c-10.295,44.236-20.609,88.468-30.815,132.724
		c-0.916,3.972-3.281,5.868-6.98,5.978c-6.82,0.202-13.65,0.058-21.121,0.058c-2.37-9.971-4.756-19.918-7.1-29.876
		c-15.784-67.046-31.597-134.086-47.248-201.163c-0.942-4.035-2.558-5.521-6.642-5.033c-3.121,0.373-6.346,0.278-9.479-0.044
		c-1.111-0.114-2.09-1.516-3.129-2.33C464.905,181.359,465.311,180.887,465.715,180.414z"/>
	<path fill-rule="evenodd" clip-rule="evenodd" d="M119.637,184.314c-5.505,0-10.649,0-15.794,0
		c-0.364-0.339-0.729-0.679-1.093-1.019c0.904-1.002,1.812-2.884,2.71-2.879c25.479,0.132,51.069-0.93,76.405,1.121
		c27.283,2.207,44.696,22.436,46.078,49.796c0.428,8.478,0.464,17.006,0.103,25.486c-0.63,14.798-8.129,25.709-20.248,33.73
		c-1.243,0.822-2.513,1.603-3.759,2.421c-0.12,0.078-0.16,0.28-0.416,0.761c1.171,0.711,2.364,1.448,3.568,2.166
		c14.032,8.367,23.331,20.327,24.251,36.826c0.794,14.244,0.934,28.762-0.903,42.863c-3.109,23.871-19.708,39.214-43.673,42.659
		c-4.433,0.637-8.947,0.968-13.426,0.988c-21.666,0.1-43.332,0.045-64.998,0.045c-1.763,0-3.525,0-5.288,0
		c-0.099-0.722-0.197-1.444-0.295-2.166c2.487-0.278,4.969-0.684,7.464-0.801c2.978-0.141,5.968-0.033,9.313-0.033
		C119.637,338.983,119.637,261.934,119.637,184.314z M151.038,416.104c8.388,0,16.207,0.211,24.007-0.063
		c6.886-0.241,12.696-3.209,16.268-9.203c2.612-4.383,5.413-9.038,6.421-13.924c5.065-24.535,4.244-49.357,1.59-74.047
		c-1.138-10.591-6.626-20.007-17.959-22.19c-9.794-1.887-20.059-1.327-30.328-1.859C151.038,335.83,151.038,375.754,151.038,416.104
		z M151.013,291.115c7.183,0,13.819,0.178,20.444-0.037c13.723-0.447,23.437-7.868,24.449-21.461
		c1.267-17.012,0.841-34.202,0.179-51.278c-0.25-6.445-2.603-13.028-5.081-19.107c-2.678-6.57-7.149-12.609-14.696-13.746
		c-8.261-1.244-16.729-1.119-25.294-1.602C151.013,220.175,151.013,255.405,151.013,291.115z"/>
</g>
<line fill="none" stroke="#211915" stroke-width="3" stroke-miterlimit="10" x1="613" y1="184.399" x2="560" y2="407.28"/>
</svg>
