<?xml version="1.0" encoding="utf-8"?>
<!-- Generator: Adobe Illustrator 24.0.2, SVG Export Plug-In . SVG Version: 6.00 Build 0)  -->
<svg version="1.1" id="Capa_1" xmlns="http://www.w3.org/2000/svg" xmlns:xlink="http://www.w3.org/1999/xlink" x="0px" y="0px"
	 viewBox="0 0 663 276" style="enable-background:new 0 0 663 276;" xml:space="preserve">
<style type="text/css">
	.st0{fill-rule:evenodd;clip-rule:evenodd;fill:#FFFFFF;}
</style>
<path class="st0" d="M207.4,173.8c0,27.4,0,54.7,0,82.5c4.9,0,9.5-0.2,14.1,0.1c1.1,0.1,2.2,1.6,3.2,2.5c-0.3,0.5-0.6,0.9-0.9,1.4
	c-14.1,0-28.3,0-42.4,0c-6.2,0-12.3-0.1-18.5,0c-2.8,0-4.3-0.6-2.8-3.9c5.2,0,10.5,0,16.3,0c0-77.4,0-154.4,0-231.9
	c-5.4,0-10.8,0-16.2,0c-0.3-0.4-0.7-0.9-1-1.3c0.9-0.9,1.8-2.7,2.7-2.7c24.5,0.1,49.1-1.5,73.4,1c27.2,2.8,46.5,24,49.1,51.4
	c1.5,15.8,1.3,32,0,47.9c-1.7,21.4-13.7,36.6-32.6,46.5c-0.7,0.4-1.5,0.7-2.2,1.2c-0.3,0.2-0.4,0.5-1,1.1
	c11.2,23.2,22.6,46.6,33.9,70c0.4-0.1,0.8-0.1,1.2-0.2c17.1-72.9,34.1-145.8,51.2-218.7c8.5,0,16.5,0,24.8,0
	c18.5,78.6,37,157.1,55.6,235.8c5.1,0,9.9-0.2,14.7,0.1c1.2,0.1,2.4,1.5,3.6,2.2c-0.3,0.5-0.5,0.9-0.8,1.4c-21.3,0-42.6,0-64.1,0
	c-1.1-2.3-0.9-3.8,2.4-3.8c4,0.1,8,0,12.6,0c-6.3-26.2-12.5-51.9-18.7-77.8c-19.4,0-38.7,0-58.6,0c-2.5,11-5.1,22.1-7.7,33.2
	c-2.5,10.9-5.1,21.7-7.6,32.6c-1.9,8.5-1,9.8,7.5,11.8c1.4,0.3,2.5,1.6,3.7,2.4c-0.2,0.6-0.5,1.2-0.7,1.8c-10.1,0-20.1-0.5-30.2,0.2
	c-10,0.7-15.3-4.1-19.3-12.4c-11-23-22.4-45.7-33.2-68.8C216.4,173.9,213.3,172,207.4,173.8z M207.6,24.5c0,48.5,0,96.5,0,144.5
	c7.2,0,14,0.2,20.8-0.1c6.7-0.3,12-3.4,15.9-9c5.6-7.9,8.4-16.8,8.6-26.2c0.6-21.3,0.9-42.6,0.8-63.9c-0.1-11.1-1.3-22.3-6.8-32.4
	c-3.9-7.1-9.3-12.4-17.7-13C222.1,24.2,215,24.5,207.6,24.5z M336,54.1c-0.3,0-0.5,0-0.8,0.1c-9.3,39.9-18.5,79.8-27.8,119.9
	c19.3,0,37.9,0,57,0C354.9,133.8,345.4,94,336,54.1z"/>
<path class="st0" d="M383.7,20.4h63.6c1.1,2.4,1.1,4-2.3,3.9c-4-0.1-8,0-12.7,0c16.1,68.7,32.2,137,48.2,205.2c1.7,0-1.7,0,0,0
	c15.9-68.2,32.9-136.7,48.8-205c-16-2.3-14.1-2-14.1-4h127v35.2c-3.3,1.7-3.6-0.7-3.8-2.9c-0.7-7.6-4.1-14-9.5-19.3
	c-5.2-5.1-11.4-8.4-18.6-8.8c-8.6-0.5-17.3-0.1-26.2-0.1V133c8.6,0,17.1,0.6,25.5-0.2c7.1-0.6,11.4-5.6,13.2-12.5
	c0.3-1.3,1.7-2.4,2.6-3.5c0.4,0.3,0.8,0.5,1.3,0.8v35.3c-0.3,0.3-0.7,0.6-1,0.9c-0.9-1-2.4-1.8-2.7-2.9c-2.7-9.3-7.6-13.4-17.2-13.6
	c-7.1-0.2-14.3,0-21.7,0v119c13.1-0.7,26.6,2.3,39.4-1.9c13.3-4.4,19.6-15.2,21.8-28.6c0.3-2-1.1-5.7,3.6-5.7V259
	c-37.3,0-74.7,0-112.1-0.1c-0.3,0-0.5-1.3-1-2.6h17v-232c-4.3,0-8.7-0.2-13.1,0.2c-1.1,0.1-2.4,2.3-2.8,3.7
	c-7.3,31.1-14.6,62.2-21.8,93.3c-10.3,44.2-20.6,88.5-30.8,132.7c-0.9,4-3.3,5.9-7,6c-6.8,0.2-13.7,0.1-21.1,0.1
	c-2.4-10-4.8-19.9-7.1-29.9c-15.8-67-31.6-134.1-47.2-201.2c-0.9-4-2.6-5.5-6.6-5c-3.1,0.4-6.3,0.3-9.5,0c-1.1-0.1-2.1-1.5-3.1-2.3
	C382.9,21.4,383.3,20.9,383.7,20.4z"/>
<path class="st0" d="M37.6,24.3c-5.5,0-10.6,0-15.8,0c-0.4-0.3-0.7-0.7-1.1-1c0.9-1,1.8-2.9,2.7-2.9c25.5,0.1,51.1-0.9,76.4,1.1
	c27.3,2.2,44.7,22.4,46.1,49.8c0.4,8.5,0.5,17,0.1,25.5c-0.6,14.8-8.1,25.7-20.2,33.7c-1.2,0.8-2.5,1.6-3.8,2.4
	c-0.1,0.1-0.2,0.3-0.4,0.8c1.2,0.7,2.4,1.4,3.6,2.2c14,8.4,23.3,20.3,24.3,36.8c0.8,14.2,0.9,28.8-0.9,42.9
	c-3.1,23.9-19.7,39.2-43.7,42.7c-4.4,0.6-8.9,1-13.4,1c-21.7,0.1-43.3,0-65,0c-1.8,0-3.5,0-5.3,0c-0.1-0.7-0.2-1.4-0.3-2.2
	c2.5-0.3,5-0.7,7.5-0.8c3-0.1,6,0,9.3,0C37.6,179,37.6,101.9,37.6,24.3z M69,256.1c8.4,0,16.2,0.2,24-0.1c6.9-0.2,12.7-3.2,16.3-9.2
	c2.6-4.4,5.4-9,6.4-13.9c5.1-24.5,4.2-49.4,1.6-74c-1.1-10.6-6.6-20-18-22.2c-9.8-1.9-20.1-1.3-30.3-1.9C69,175.8,69,215.8,69,256.1
	z M69,131.1c7.2,0,13.8,0.2,20.4,0c13.7-0.4,23.4-7.9,24.4-21.5c1.3-17,0.8-34.2,0.2-51.3c-0.2-6.4-2.6-13-5.1-19.1
	c-2.7-6.6-7.1-12.6-14.7-13.7c-8.3-1.2-16.7-1.1-25.3-1.6C69,60.2,69,95.4,69,131.1z"/>
</svg>
