<?xml version="1.0" encoding="utf-8"?>
<!-- Generator: Adobe Illustrator 24.0.2, SVG Export Plug-In . SVG Version: 6.00 Build 0)  -->
<svg version="1.1" id="Capa_1" xmlns="http://www.w3.org/2000/svg" xmlns:xlink="http://www.w3.org/1999/xlink" x="0px" y="0px"
	 viewBox="0 0 16 15.5" style="enable-background:new 0 0 16 15.5;" xml:space="preserve">
<style type="text/css">
	.st0{fill:#FFFFFF;stroke:#FFFFFF;stroke-width:0.25;stroke-miterlimit:10;}
</style>
<path class="st0" d="M8.8,0.5c0.4,0.2,0.9,0.3,1.2,0.5c0.7,0.5,1,1.2,1,2.1c0,0.3,0,0.7,0,1.1c0.4,0,0.7,0,1.1,0c0.3,0,0.6,0,0.9,0
	c0.3,0,0.4,0.1,0.4,0.4c0,1,0.1,2,0.1,2.9c0.1,2.1,0.2,4.3,0.3,6.4c0,0.4,0,0.8-0.1,1.1c-3.5,0-7.1,0-10.6,0c0-0.4-0.1-0.7-0.1-1.1
	c0.1-2.7,0.3-5.4,0.4-8.1c0-0.4,0-0.9,0.1-1.3c0-0.3,0.1-0.4,0.4-0.4c0.6,0,1.3,0,2,0c0-0.5,0-0.9,0-1.4c0.1-1.2,0.9-2,2.1-2.3
	c0,0,0.1,0,0.1-0.1C8.4,0.5,8.6,0.5,8.8,0.5z M10.6,4.7c-1.5,0-2.9,0-4.3,0c0,0.2,0,0.4,0,0.6c0,0.1-0.1,0.2-0.2,0.3
	C6,5.4,5.9,5.3,5.9,5.2c0-0.2,0-0.4,0-0.6c-0.6,0-1.3,0-1.9,0c-0.2,3.3-0.3,6.6-0.5,9.9c3.3,0,6.6,0,9.9,0c-0.2-3.3-0.3-6.6-0.5-9.9
	c-0.6,0-1.3,0-1.9,0c0,0.2,0,0.4,0,0.6c0,0.1-0.1,0.2-0.2,0.2c-0.1-0.1-0.2-0.1-0.2-0.2C10.6,5.1,10.6,4.9,10.6,4.7z M10.6,4.2
	c0-0.4,0-0.8,0-1.1c0-0.9-0.6-1.6-1.4-2C8.5,0.8,7.6,1,7,1.6C6.2,2.3,6.3,3.3,6.3,4.2C7.8,4.2,9.2,4.2,10.6,4.2z"/>
</svg>
