<?xml version="1.0" encoding="utf-8"?>
<!-- Generator: Adobe Illustrator 24.0.2, SVG Export Plug-In . SVG Version: 6.00 Build 0)  -->
<svg version="1.1" id="Capa_1" xmlns="http://www.w3.org/2000/svg" xmlns:xlink="http://www.w3.org/1999/xlink" x="0px" y="0px"
	 viewBox="0 0 16 15.5" style="enable-background:new 0 0 16 15.5;" xml:space="preserve">
<style type="text/css">
	.st0{stroke:#000000;stroke-width:0.25;stroke-miterlimit:10;}
</style>
<path class="st0" d="M9.4,0.2C9.8,0.4,10,0.6,10,1c0.1,0.3,0.2,0.6,0.3,0.9c0.1,0,0.1,0,0.2,0c0.8,0,1.6,0,2.4,0
	c0.5,0,0.8,0.3,0.8,0.8c0,0.1,0,0.3,0,0.4c0.1,0,0.1,0,0.2,0c0.2,0,0.3,0.1,0.3,0.2c0,0.1-0.1,0.2-0.3,0.2c-0.1,0-0.2,0-0.3,0
	c-0.1,0-0.1,0-0.1,0.1c-0.1,0.9-0.1,1.8-0.2,2.6c-0.1,1-0.2,2.1-0.3,3.1c-0.1,0.9-0.1,1.8-0.2,2.7c-0.1,0.7-0.1,1.4-0.2,2.1
	c-0.1,0.6-0.6,1-1.2,1c-0.5,0-1,0-1.5,0c-1.7,0-3.4,0-5.2,0c-0.7,0-1.2-0.4-1.3-1.1c-0.1-0.8-0.1-1.5-0.2-2.3
	C3.2,10.7,3.1,9.7,3,8.6c-0.1-1-0.2-2.1-0.2-3.1c0-0.6-0.1-1.3-0.2-1.9c0,0-0.1-0.1-0.1-0.1c-0.1,0-0.2,0-0.4,0
	C2,3.5,1.9,3.4,1.9,3.3c0-0.1,0.1-0.2,0.3-0.2c0.1,0,0.1,0,0.2,0c0-0.1,0-0.3,0-0.4c0-0.4,0.3-0.7,0.7-0.7c0.8,0,1.6,0,2.4,0
	c0.1,0,0.1,0,0.2,0C5.8,1.6,5.9,1.3,6,1C6,0.6,6.2,0.4,6.6,0.2C7.5,0.2,8.5,0.2,9.4,0.2z M3.1,3.6c0,0.2,0,0.4,0,0.6
	c0.1,1.5,0.2,3.1,0.4,4.6C3.7,10.5,3.8,12.2,4,14c0,0.5,0.3,0.8,0.8,0.8c2.2,0,4.3,0,6.5,0c0,0,0.1,0,0.1,0c0.4,0,0.6-0.3,0.7-0.6
	c0-0.3,0-0.5,0.1-0.8c0.1-1,0.2-2.1,0.2-3.1c0.1-1.1,0.2-2.1,0.3-3.2c0.1-0.9,0.1-1.8,0.2-2.8c0-0.3,0-0.5,0.1-0.8
	C9.6,3.6,6.4,3.6,3.1,3.6z M13.1,3.1c0-0.1,0-0.2,0-0.3c0-0.3,0-0.4-0.4-0.4c-3.2,0-6.4,0-9.6,0c0,0-0.1,0-0.1,0
	c-0.1,0-0.2,0.1-0.2,0.2c0,0.2,0,0.3,0,0.5C6.3,3.1,9.7,3.1,13.1,3.1z M9.8,1.9C9.7,1.6,9.6,1.3,9.5,1C9.5,0.8,9.4,0.7,9.2,0.7
	c-0.3,0-0.7,0-1,0c-0.5,0-0.9,0-1.4,0c-0.1,0-0.2,0-0.3,0.2c-0.1,0.3-0.2,0.7-0.3,1C7.4,1.9,8.6,1.9,9.8,1.9z"/>
<path class="st0" d="M6,9.2c0,0.7,0.1,1.4,0.1,2.1c0,0.3,0,0.6,0,0.9c0,0.1,0,0.1,0,0.1c0,0-0.1,0.1-0.2,0c-0.1,0-0.1-0.1-0.1-0.2
	c0-0.4,0-0.7-0.1-1.1c0-1-0.1-1.9-0.1-2.9c0-0.7-0.1-1.4-0.1-2.1c0,0,0,0,0-0.1C5.5,6,5.6,6,5.7,6c0.1,0,0.2,0,0.2,0.1
	c0,0.2,0,0.4,0,0.6C5.9,7.5,6,8.4,6,9.2z"/>
<path class="st0" d="M10.1,9.2c-0.1,1-0.1,2-0.2,3c0,0.1,0,0.1-0.1,0.2c-0.1,0-0.1,0-0.2,0c0,0-0.1-0.1-0.1-0.2c0-0.5,0-0.9,0.1-1.4
	c0-0.7,0.1-1.4,0.1-2.1C9.9,7.8,9.9,7,10,6.2C10,6,10,6,10.1,6c0.1,0,0.2,0.1,0.1,0.2c0,0.8-0.1,1.7-0.1,2.5
	C10.1,8.9,10.1,9,10.1,9.2C10.1,9.2,10.1,9.2,10.1,9.2z"/>
<path class="st0" d="M7.7,9.1c0-1,0-2,0-2.9c0,0,0-0.1,0-0.1C7.7,6,7.7,5.9,7.8,6C7.9,6,8,6,8,6.1c0,0,0,0.1,0,0.1c0,2,0,3.9,0,5.9
	c0,0,0,0.1,0,0.1c0,0.1-0.1,0.1-0.2,0.1c-0.1,0-0.1-0.1-0.2-0.1c0,0,0-0.1,0-0.1C7.7,11.1,7.7,10.1,7.7,9.1z"/>
</svg>
